PathFileType	4	(X/Y/Z)	C:\Users\Basilio\Documents\Thesis Gigler\squatting_fais\c3dfiles\054\SLS_back_pre1\markers_experimental.trc
DataRate	CameraRate	NumFrames	NumMarkers	Units	OrigDataRate	OrigDataStartFrame	OrigNumFrames
200.000000	200.000000	4	61	mm	200.000000	434	1738
Frame#	Time	FHD			LBHD			RBHD			C7			T10			CLAV			LSHO			LUUPA			LMUPA			LDUPA			LLEP			LMEP			LRAD			LUL			LRFIN			RSHO			RUPA1			RMUPA			RDUPA			RLEP			RMEP			RRAD			RUL			RUFIN			LASI			RASI			USACR			LSACR			RSACR			LTHI1			LTHI2			LTHI3			LTHI4			LLFC			LMFC			LTIB1			LTIB2			LTIB3			LTIB4			LLMAL			LMMAL			LHEE			LMT1			LMT2			LMT5			RTHI			RTHI2			RTHI3			RTHI4			RLFC			RMFC			RTIB1			RTIB2			RTIB3			RTIB4			RLMAL			RMMAL			RHEE			RMT1			RMT2			RMT5			
		X1	Y1	Z1	X2	Y2	Z2	X3	Y3	Z3	X4	Y4	Z4	X5	Y5	Z5	X6	Y6	Z6	X7	Y7	Z7	X8	Y8	Z8	X9	Y9	Z9	X10	Y10	Z10	X11	Y11	Z11	X12	Y12	Z12	X13	Y13	Z13	X14	Y14	Z14	X15	Y15	Z15	X16	Y16	Z16	X17	Y17	Z17	X18	Y18	Z18	X19	Y19	Z19	X20	Y20	Z20	X21	Y21	Z21	X22	Y22	Z22	X23	Y23	Z23	X24	Y24	Z24	X25	Y25	Z25	X26	Y26	Z26	X27	Y27	Z27	X28	Y28	Z28	X29	Y29	Z29	X30	Y30	Z30	X31	Y31	Z31	X32	Y32	Z32	X33	Y33	Z33	X34	Y34	Z34	X35	Y35	Z35	X36	Y36	Z36	X37	Y37	Z37	X38	Y38	Z38	X39	Y39	Z39	X40	Y40	Z40	X41	Y41	Z41	X42	Y42	Z42	X43	Y43	Z43	X44	Y44	Z44	X45	Y45	Z45	X46	Y46	Z46	X47	Y47	Z47	X48	Y48	Z48	X49	Y49	Z49	X50	Y50	Z50	X51	Y51	Z51	X52	Y52	Z52	X53	Y53	Z53	X54	Y54	Z54	X55	Y55	Z55	X56	Y56	Z56	X57	Y57	Z57	X58	Y58	Z58	X59	Y59	Z59	X60	Y60	Z60	X61	Y61	Z61	

435	2.17	-201.1696929931641	1789.9365234375	-966.8709106445315	-364.3339538574219	1736.1279296875	-1032.50244140625	-377.3647766113282	1734.872802734375	-892.592712402344	-404.422821044922	1554.022827148438	-946.576599121094	-395.8047485351564	1224.988037109375	-947.4069824218752	-254.274398803711	1515.787841796875	-962.9731445312502	-355.1297912597657	1549.944580078125	-1106.991455078125	-203.2810821533204	1449.698364257813	-1238.296752929688	-172.1772003173828	1486.04296875	-1224.509887695313	-134.9632263183594	1447.855102539063	-1250.789672851563	-75.59571838378908	1456.295532226563	-1248.841674804688	-67.05364227294923	1391.427124023438	-1204.913940429688	175.7561187744141	1506.699340820313	-1167.391967773438	196.1070098876954	1480.49365234375	-1237.895263671875	264.1624755859376	1539.312133789063	-1182.907470703125	-320.3957824707032	1553.683349609375	-806.5672607421877	-148.6845855712891	1451.19091796875	-693.3677978515626	-117.0425872802735	1484.7734375	-706.8776855468751	-79.14793395996095	1439.425048828125	-689.0487670898439	-34.85871124267579	1438.011352539063	-696.3252563476564	-38.78549575805665	1383.68212890625	-747.8510742187501	218.6263122558594	1509.395751953125	-808.2977294921877	228.8244628906251	1471.477172851563	-739.1140136718751	293.6312561035157	1542.212280273438	-797.4944458007815	-199.9349975585938	1067.252685546875	-1080.969848632813	-190.5285339355469	1068.1650390625	-826.7279052734377	-388.6531677246095	1140.942626953125	-946.8311767578127	-393.5886535644532	1108.868408203125	-975.1856079101565	-389.2355041503907	1107.539672851563	-918.783386230469	-297.9005432128907	825.2410278320315	-1156.53076171875	-270.2698669433594	745.0425415039064	-1150.765991210938	-222.9822998046876	746.6450805664064	-1145.638427734375	-301.4991760253907	694.5824584960939	-1134.17626953125	-312.3713989257813	540.1306762695314	-1110.044921875	-277.9797058105469	535.1350708007814	-975.0593261718752	-274.2274475097657	374.9624023437501	-1059.037841796875	-327.4291687011719	330.1354675292969	-1115.176513671875	-287.8511047363282	326.8417968750001	-1090.623657226563	-295.3890991210938	249.6369934082032	-1055.873901367188	-357.8292236328126	114.9458847045899	-1091.268310546875	-325.0193786621094	134.584716796875	-1001.526000976563	-426.1563415527345	102.3982620239258	-1033.387329101563	-214.4700164794922	56.59065246582033	-1012.44140625	-206.5893554687501	54.46720504760744	-1061.7841796875	-258.3893432617188	38.22755813598634	-1113.098388671875	-291.0775146484376	768.4108886718752	-741.5324096679689	-258.1807250976563	710.5330200195314	-735.4603271484376	-224.7992401123047	709.0974121093751	-738.8561401367189	-291.2458496093751	635.1157836914064	-750.7270507812501	-307.7651367187501	544.6997680664064	-748.9284667968751	-252.9429168701172	532.2268066406251	-876.0349731445315	-260.7960205078126	432.9505615234376	-745.8968505859376	-337.3031005859376	368.6154479980469	-709.4537353515626	-292.3876647949219	357.5278015136719	-715.6219482421876	-280.8821105957032	304.1085510253907	-735.5066528320314	-354.8202819824219	129.0893096923828	-703.7277221679689	-309.7044982910157	141.7848052978516	-787.1445312500002	-415.620574951172	108.8191452026367	-764.4992675781251	-199.7245178222657	54.18514633178712	-767.4951782226564	-200.0262603759766	50.65092849731447	-719.4792480468751	-253.4924468994141	37.08525085449219	-675.2570800781251	
436	2.175	-201.1750030517579	1790.020874023438	-967.979187011719	-364.2705993652344	1736.167724609375	-1033.51220703125	-377.2314453125001	1734.960327148438	-893.4046020507815	-404.4245605468751	1554.040161132813	-947.4713134765627	-395.9372863769532	1225.048095703125	-948.3658447265627	-254.356918334961	1515.756713867188	-964.0140380859377	-355.2800903320313	1550.01318359375	-1107.850463867188	-203.4334564208985	1449.798950195313	-1239.591552734375	-172.7153472900391	1486.377807617188	-1225.418334960938	-135.0564422607422	1447.84326171875	-1251.7177734375	-75.80883026123048	1456.271728515625	-1249.675048828125	-66.94227600097658	1391.239990234375	-1205.686767578125	175.4387969970703	1506.66943359375	-1168.146484375	195.9522399902344	1480.454833984375	-1238.6650390625	264.0020751953126	1539.3515625	-1183.704711914063	-320.3366394042969	1553.73779296875	-807.7318115234377	-148.7560424804688	1451.280029296875	-694.3149414062501	-117.0688552856446	1484.920654296875	-707.8052978515626	-79.07565307617189	1439.505859375	-690.2463378906251	-34.83672714233399	1438.077758789063	-697.4882812500001	-38.52591705322266	1383.807739257813	-748.3325195312501	218.7567749023438	1509.166259765625	-809.3344726562502	228.9615936279297	1471.494506835938	-740.1572875976564	293.7089843750001	1542.100952148438	-798.567565917969	-199.9961090087891	1067.22265625	-1081.925415039063	-190.7816619873047	1068.22509765625	-827.6827392578127	-388.7435913085939	1140.873413085938	-947.6762695312502	-393.622283935547	1108.862670898438	-976.0924072265627	-389.3973693847657	1107.595458984375	-919.777038574219	-297.6908874511719	825.0822753906252	-1157.18408203125	-269.9724426269532	745.2308959960939	-1151.338989257813	-222.9751281738282	746.5540771484376	-1146.254638671875	-301.2585754394532	694.4318237304689	-1134.744140625	-311.9658813476563	539.9724731445314	-1110.514526367188	-277.6969299316407	535.1568603515626	-975.4014282226565	-273.8667297363282	374.9170837402344	-1059.370849609375	-327.3243408203126	329.9156494140626	-1115.335205078125	-287.6500854492188	326.7835083007813	-1090.920288085938	-295.3499755859376	249.5284881591797	-1056.000366210938	-357.8276062011719	114.8802795410157	-1091.274780273438	-325.0623779296876	134.5938110351563	-1001.557556152344	-426.1289367675782	102.3697128295899	-1033.374877929688	-214.4294891357422	56.58901596069337	-1012.4306640625	-206.6340484619141	54.45616149902345	-1061.712768554688	-258.3142395019532	38.22107696533204	-1113.104248046875	-290.9515991210938	768.4302368164065	-742.0468750000001	-257.8720092773438	710.7445678710939	-736.0304565429689	-224.1804962158204	709.2208251953126	-739.6331176757814	-290.6462402343751	635.0936279296876	-751.1578369140626	-306.9264221191407	544.7312622070314	-749.3092041015626	-252.4286499023438	532.2088623046876	-876.440856933594	-260.1629028320313	432.9081420898439	-746.3506469726564	-336.8660278320313	368.7900390625001	-709.6379394531251	-291.7799377441407	357.7027893066407	-715.9473876953126	-280.5761108398438	304.1404113769532	-735.7115478515626	-354.6084289550782	129.2210540771485	-703.7015380859376	-309.5570678710938	141.8876190185547	-787.218688964844	-415.4658508300782	109.0787353515625	-764.5210571289064	-199.6731872558594	54.24020385742189	-767.5135498046876	-199.9927673339844	50.62172317504884	-719.4676513671876	-253.4891204833985	37.17209243774415	-675.2961425781251	
437	2.18	-201.236312866211	1790.04052734375	-969.011413574219	-364.2552185058594	1736.25732421875	-1034.442993164063	-377.3613281250001	1735.004760742188	-894.5349121093752	-404.4229736328126	1554.112182617188	-948.4307861328127	-396.0575256347657	1225.119384765625	-949.2486572265627	-254.310287475586	1515.7919921875	-965.0122070312502	-355.3935546875001	1550.061279296875	-1108.81982421875	-203.7977447509766	1449.726196289063	-1240.364135742188	-172.3902130126953	1485.991455078125	-1226.4326171875	-135.1820373535157	1447.76220703125	-1252.704711914063	-75.52404022216798	1456.022583007813	-1250.614379882813	-67.04116058349611	1391.444702148438	-1206.989013671875	175.3105010986328	1506.620483398438	-1169.01171875	195.3941040039063	1480.462890625	-1239.299194335938	263.8230590820313	1539.348388671875	-1184.492919921875	-320.1960144042969	1553.80078125	-808.570739746094	-148.7969055175782	1451.392456054688	-695.1611938476564	-117.021240234375	1485.075317382813	-708.9210815429689	-78.9535369873047	1439.605224609375	-691.2861938476564	-34.60416793823243	1438.265991210938	-698.5883789062501	-38.56771850585938	1383.778198242188	-749.5930175781251	218.8766479492188	1509.228759765625	-810.5227661132815	229.0649719238282	1471.4482421875	-741.1999511718751	293.8365478515626	1542.013916015625	-799.580017089844	-200.045883178711	1067.267700195313	-1083.01708984375	-190.9071502685547	1068.31396484375	-828.704040527344	-388.9664001464845	1140.948974609375	-948.5903320312502	-393.9411621093751	1108.847900390625	-977.029724121094	-389.5702209472657	1107.610229492188	-920.6458740234377	-297.8387145996094	825.1837158203127	-1157.841430664063	-269.7150878906251	745.0737915039064	-1152.023681640625	-222.9227447509766	746.4919433593751	-1146.98095703125	-301.0036926269532	694.2406005859376	-1135.34765625	-311.7243347167969	539.8721923828126	-1111.009521484375	-277.3238830566407	535.1683959960939	-975.8122558593752	-273.8441772460938	374.7880554199219	-1059.72412109375	-327.2429809570313	329.7648315429688	-1115.673828125	-287.4248657226563	326.4776000976563	-1091.2470703125	-295.2893371582032	249.5003204345704	-1056.120971679688	-357.8357238769532	114.8766708374024	-1091.32568359375	-324.9991149902344	134.5968017578125	-1001.599304199219	-426.1573181152345	102.3738250732422	-1033.388793945313	-214.5025482177735	56.62241363525392	-1012.456604003906	-206.6194610595704	54.45830535888673	-1061.698364257813	-258.3384399414063	38.24234008789063	-1113.073608398438	-290.6826477050782	768.4899902343752	-742.6055297851564	-257.4186096191407	710.9053955078126	-736.5982666015626	-223.5386962890626	709.2586669921876	-740.3918457031251	-290.2358703613282	635.1740112304689	-751.4736938476564	-306.3031311035157	544.7706909179689	-749.6476440429689	-251.8326416015626	532.1797485351564	-876.9055786132815	-259.6461181640626	433.0079345703126	-746.7427978515626	-336.4087524414063	368.9728088378907	-709.8179931640626	-291.2118835449219	357.7217407226563	-716.2012329101564	-280.0766601562501	304.2768249511719	-736.0217895507814	-354.3714599609376	129.6006469726563	-703.8251953125001	-309.3583068847657	141.9898986816407	-787.3181762695315	-415.3951721191407	109.3192214965821	-764.5364990234376	-199.6189270019532	54.10144424438478	-767.5312500000001	-199.9388580322266	50.6483840942383	-719.5427246093751	-253.4500885009766	37.20988845825196	-675.2968139648439	
438	2.185	-201.218490600586	1790.133178710938	-969.9534912109377	-364.4946594238282	1736.212768554688	-1035.530517578125	-377.0506286621094	1735.00439453125	-895.418151855469	-404.3723144531251	1554.181518554688	-949.316345214844	-396.1298828125001	1225.158813476563	-950.2443847656252	-254.3101196289063	1515.731323242188	-965.9817504882815	-355.5422668457032	1550.1923828125	-1109.805541992188	-203.4759063720704	1449.70654296875	-1241.48291015625	-172.5572509765625	1486.05029296875	-1227.357421875	-135.356918334961	1447.787841796875	-1253.668701171875	-76.05665588378908	1456.25537109375	-1251.69287109375	-67.25807952880861	1391.510620117188	-1208.200561523438	175.131576538086	1506.665161132813	-1169.895141601563	195.4468078613282	1480.513061523438	-1240.26708984375	263.6551818847657	1539.33642578125	-1185.337890625	-320.0885620117188	1553.829345703125	-809.625671386719	-148.8409118652344	1451.419799804688	-696.1839599609376	-117.0928039550782	1485.174072265625	-709.7512817382814	-79.01580047607423	1439.631469726563	-692.3377075195314	-34.62842178344727	1438.466186523438	-699.6450805664064	-38.48524475097657	1383.875122070313	-750.5433959960939	219.0122222900391	1509.127807617188	-811.5107421875002	229.0631866455079	1471.421142578125	-742.1541748046876	293.9918823242188	1541.878662109375	-800.7156982421877	-200.2188262939454	1067.256103515625	-1083.87841796875	-190.976791381836	1068.372924804688	-829.7029418945315	-389.118377685547	1140.898559570313	-949.5843505859377	-393.989471435547	1108.832763671875	-977.9746093750002	-389.7811889648439	1107.666870117188	-921.570251464844	-297.7801208496094	825.004821777344	-1158.7490234375	-269.8338623046876	744.9006347656251	-1152.79248046875	-222.7952728271485	746.4520874023439	-1147.661010742188	-300.9300537109376	694.1928100585939	-1135.969360351563	-311.2566223144532	539.7006835937501	-1111.663818359375	-277.1354370117188	535.1907348632814	-976.5393676757815	-273.7968139648438	374.6252136230469	-1059.959350585938	-326.9990539550782	329.5812377929688	-1115.834106445313	-287.3094177246094	326.3086242675782	-1091.48974609375	-294.8283996582032	249.3644104003907	-1056.3232421875	-357.8235473632813	114.8647842407227	-1091.340209960938	-324.9954833984376	134.5801239013672	-1001.655639648438	-426.151336669922	102.3741760253907	-1033.406616210938	-214.4747161865235	56.57801055908205	-1012.429077148438	-206.6473999023438	54.41355895996095	-1061.681274414063	-258.2994079589844	38.25870895385743	-1113.108520507813	-290.3179321289063	768.5821533203127	-743.1319580078126	-256.9870605468751	710.9592285156251	-737.0571899414064	-223.2690734863282	709.4141845703126	-740.8442382812501	-289.7716979980469	635.1085205078126	-751.8519897460939	-305.8591308593751	544.9210205078126	-749.9970092773439	-251.0829162597657	532.2278442382814	-877.3865356445315	-259.0721435546876	433.1507568359376	-747.0574951171876	-335.8223571777344	369.1302185058594	-710.0419921875001	-290.6543884277344	357.8397827148438	-716.4967651367189	-279.5826721191407	304.3112487792969	-736.4219360351564	-354.2245483398438	129.79541015625	-703.8107910156251	-309.1924133300782	142.112777709961	-787.4500732421877	-415.3365783691407	109.5508041381836	-764.5817871093751	-199.4878845214844	53.27501678466798	-767.3950805664064	-199.9512939453126	50.60413742065431	-719.5000000000001	-253.3390197753907	37.29753112792969	-675.3672485351564	
